<svg width="386" height="60" viewBox="0 0 386 60" fill="none" xmlns="http://www.w3.org/2000/svg">
<path d="M108.979 48V12.6484H123.041C130.854 12.6484 134.76 16.4082 134.76 21.7305C134.76 25.8809 132.074 28.4688 128.412 29.2988V29.6406C132.416 29.8359 136.176 33.0098 136.176 38.2344C136.176 43.8496 131.977 48 123.969 48H108.979ZM122.504 41.9453C126.752 41.9453 128.559 40.1875 128.559 37.5508C128.559 34.5723 126.312 32.4727 122.699 32.4727H116.303V41.9453H122.504ZM121.967 27.4434C125.043 27.4434 127.338 25.7344 127.338 22.9023C127.338 20.3633 125.482 18.6055 122.113 18.6055H116.303V27.4434H121.967ZM150.18 48.5371C142.074 48.5371 137.094 43.2637 137.094 34.8652C137.094 26.6621 142.123 21.1445 149.887 21.1445C156.869 21.1445 162.338 25.5391 162.338 34.5723V36.623H144.223C144.223 40.627 146.615 43.1172 150.326 43.1172C152.768 43.1172 154.525 42.043 155.258 40.4316H162.143C161.117 45.3145 156.723 48.5371 150.18 48.5371ZM144.223 32.082H155.502C155.502 28.8594 153.256 26.5645 150.033 26.5645C146.713 26.5645 144.345 29.0303 144.223 32.082ZM176.293 48.5371C168.188 48.5371 163.305 42.9219 163.305 34.8164C163.305 26.7109 168.236 21.1445 176.293 21.1445C183.129 21.1445 187.768 25.1484 188.061 31.2031H181.273C180.834 28.5664 179.125 26.7598 176.391 26.7598C172.924 26.7598 170.629 29.6895 170.629 34.7188C170.629 39.8457 172.875 42.7754 176.391 42.7754C178.93 42.7754 180.834 41.2129 181.273 38.3809H188.061C187.719 44.3867 183.324 48.5371 176.293 48.5371ZM197.279 32.668V48H190.053V12.6484H197.084V26.125H197.377C198.598 23.0488 201.283 21.1445 205.287 21.1445C210.805 21.1445 214.467 24.8555 214.467 31.1055V48H207.24V32.375C207.24 29.1035 205.482 27.1504 202.455 27.1504C199.428 27.1504 197.279 29.1523 197.279 32.668ZM227.299 48.4395C221.244 48.4395 216.508 43.6055 216.508 34.7676C216.508 25.6855 221.439 21.1445 227.299 21.1445C231.742 21.1445 233.842 23.7812 234.818 25.9297H235.062V12.6484H242.289V48H235.16V43.752H234.818C233.793 45.9492 231.596 48.4395 227.299 48.4395ZM229.545 42.6777C233.158 42.6777 235.209 39.5039 235.209 34.7188C235.209 29.9336 233.158 26.9062 229.545 26.9062C225.883 26.9062 223.93 30.0801 223.93 34.7188C223.93 39.4062 225.883 42.6777 229.545 42.6777ZM257.611 48.5371C249.506 48.5371 244.525 43.2637 244.525 34.8652C244.525 26.6621 249.555 21.1445 257.318 21.1445C264.301 21.1445 269.77 25.5391 269.77 34.5723V36.623H251.654C251.654 40.627 254.047 43.1172 257.758 43.1172C260.199 43.1172 261.957 42.043 262.689 40.4316H269.574C268.549 45.3145 264.154 48.5371 257.611 48.5371ZM251.654 32.082H262.934C262.934 28.8594 260.688 26.5645 257.465 26.5645C254.145 26.5645 251.776 29.0303 251.654 32.082ZM279.037 12.6484V48H271.811V12.6484H279.037Z" fill="white"/>
<path d="M279.979 48V12.6484H287.205V25.9297H287.4C288.426 23.7812 290.525 21.1445 294.969 21.1445C300.828 21.1445 305.76 25.6855 305.76 34.7676C305.76 43.6055 301.023 48.4395 294.969 48.4395C290.623 48.4395 288.426 45.9492 287.4 43.752H287.107V48H279.979ZM287.059 34.7188C287.059 39.5039 289.109 42.6777 292.674 42.6777C296.385 42.6777 298.338 39.4062 298.338 34.7188C298.338 30.0801 296.385 26.9062 292.674 26.9062C289.061 26.9062 287.059 29.9336 287.059 34.7188ZM319.812 48.5371C311.805 48.5371 306.824 43.0195 306.824 34.8164C306.824 26.6133 311.805 21.1445 319.812 21.1445C327.82 21.1445 332.85 26.6133 332.85 34.8164C332.85 43.0195 327.82 48.5371 319.812 48.5371ZM319.861 42.9219C323.572 42.9219 325.477 39.4551 325.477 34.8164C325.477 30.1289 323.572 26.6621 319.861 26.6621C316.102 26.6621 314.148 30.1289 314.148 34.8164C314.148 39.4551 316.102 42.9219 319.861 42.9219ZM339.92 21.4863L344.852 30.8125L349.881 21.4863H357.352L349.588 34.7188L357.547 48H350.125L344.852 38.7715L339.676 48H332.156L340.066 34.7188L332.449 21.4863H339.92ZM367.742 48.4395C361.688 48.4395 356.951 43.6055 356.951 34.7676C356.951 25.6855 361.883 21.1445 367.742 21.1445C372.186 21.1445 374.285 23.7812 375.262 25.9297H375.506V12.6484H382.732V48H375.604V43.752H375.262C374.236 45.9492 372.039 48.4395 367.742 48.4395ZM369.988 42.6777C373.602 42.6777 375.652 39.5039 375.652 34.7188C375.652 29.9336 373.602 26.9062 369.988 26.9062C366.326 26.9062 364.373 30.0801 364.373 34.7188C364.373 39.4062 366.326 42.6777 369.988 42.6777Z" fill="white"/>
<rect x="77.4509" y="9.728" width="29.7896" height="29.7896" rx="8.5113" transform="rotate(44.0784 77.4509 9.728)" fill="#40BCF4"/>
<rect x="50.4944" y="9.73706" width="29.7896" height="29.7896" rx="8.5113" transform="rotate(46.9173 50.4944 9.73706)" fill="#00E054"/>
<path d="M65.0264 25.2838C68.2372 28.717 68.0572 34.1033 64.624 37.3141L63.8525 38.0348L62.8408 37.0553C59.4639 33.7853 59.3775 28.397 62.6475 25.0201L63.7314 23.9L65.0264 25.2838Z" fill="white"/>
<rect x="20.7984" y="10" width="29.7896" height="29.7896" rx="8.5113" transform="rotate(44.2809 20.7984 10)" fill="#FF8000"/>
<path d="M36.0265 24.8635C39.3915 28.1452 39.4592 33.5333 36.1778 36.8986L35.6251 37.4641L34.545 36.3088C31.3343 32.8757 31.5144 27.4893 34.9474 24.2785L35.1915 24.05L36.0265 24.8635Z" fill="white"/>
</svg>
