<svg width="280" height="158" viewBox="0 0 280 158" fill="none" xmlns="http://www.w3.org/2000/svg">
<path d="M2.97852 146V110.648H17.041C24.8535 110.648 28.7598 114.408 28.7598 119.73C28.7598 123.881 26.0742 126.469 22.4121 127.299V127.641C26.416 127.836 30.1758 131.01 30.1758 136.234C30.1758 141.85 25.9766 146 17.9688 146H2.97852ZM16.5039 139.945C20.752 139.945 22.5586 138.188 22.5586 135.551C22.5586 132.572 20.3125 130.473 16.6992 130.473H10.3027V139.945H16.5039ZM15.9668 125.443C19.043 125.443 21.3379 123.734 21.3379 120.902C21.3379 118.363 19.4824 116.605 16.1133 116.605H10.3027V125.443H15.9668ZM44.1797 146.537C36.0742 146.537 31.0938 141.264 31.0938 132.865C31.0938 124.662 36.123 119.145 43.8867 119.145C50.8691 119.145 56.3379 123.539 56.3379 132.572V134.623H38.2227C38.2227 138.627 40.6152 141.117 44.3262 141.117C46.7676 141.117 48.5254 140.043 49.2578 138.432H56.1426C55.1172 143.314 50.7227 146.537 44.1797 146.537ZM38.2227 130.082H49.502C49.502 126.859 47.2559 124.564 44.0332 124.564C40.7129 124.564 38.3447 127.03 38.2227 130.082ZM70.293 146.537C62.1875 146.537 57.3047 140.922 57.3047 132.816C57.3047 124.711 62.2363 119.145 70.293 119.145C77.1289 119.145 81.7676 123.148 82.0605 129.203H75.2734C74.834 126.566 73.125 124.76 70.3906 124.76C66.9238 124.76 64.6289 127.689 64.6289 132.719C64.6289 137.846 66.875 140.775 70.3906 140.775C72.9297 140.775 74.834 139.213 75.2734 136.381H82.0605C81.7188 142.387 77.3242 146.537 70.293 146.537ZM91.2793 130.668V146H84.0527V110.648H91.084V124.125H91.377C92.5977 121.049 95.2832 119.145 99.2871 119.145C104.805 119.145 108.467 122.855 108.467 129.105V146H101.24V130.375C101.24 127.104 99.4824 125.15 96.4551 125.15C93.4277 125.15 91.2793 127.152 91.2793 130.668ZM121.299 146.439C115.244 146.439 110.508 141.605 110.508 132.768C110.508 123.686 115.439 119.145 121.299 119.145C125.742 119.145 127.842 121.781 128.818 123.93H129.062V110.648H136.289V146H129.16V141.752H128.818C127.793 143.949 125.596 146.439 121.299 146.439ZM123.545 140.678C127.158 140.678 129.209 137.504 129.209 132.719C129.209 127.934 127.158 124.906 123.545 124.906C119.883 124.906 117.93 128.08 117.93 132.719C117.93 137.406 119.883 140.678 123.545 140.678ZM151.611 146.537C143.506 146.537 138.525 141.264 138.525 132.865C138.525 124.662 143.555 119.145 151.318 119.145C158.301 119.145 163.77 123.539 163.77 132.572V134.623H145.654C145.654 138.627 148.047 141.117 151.758 141.117C154.199 141.117 155.957 140.043 156.689 138.432H163.574C162.549 143.314 158.154 146.537 151.611 146.537ZM145.654 130.082H156.934C156.934 126.859 154.688 124.564 151.465 124.564C148.145 124.564 145.776 127.03 145.654 130.082ZM173.037 110.648V146H165.811V110.648H173.037Z" fill="white"/>
<path d="M173.979 146V110.648H181.205V123.93H181.4C182.426 121.781 184.525 119.145 188.969 119.145C194.828 119.145 199.76 123.686 199.76 132.768C199.76 141.605 195.023 146.439 188.969 146.439C184.623 146.439 182.426 143.949 181.4 141.752H181.107V146H173.979ZM181.059 132.719C181.059 137.504 183.109 140.678 186.674 140.678C190.385 140.678 192.338 137.406 192.338 132.719C192.338 128.08 190.385 124.906 186.674 124.906C183.061 124.906 181.059 127.934 181.059 132.719ZM213.812 146.537C205.805 146.537 200.824 141.02 200.824 132.816C200.824 124.613 205.805 119.145 213.812 119.145C221.82 119.145 226.85 124.613 226.85 132.816C226.85 141.02 221.82 146.537 213.812 146.537ZM213.861 140.922C217.572 140.922 219.477 137.455 219.477 132.816C219.477 128.129 217.572 124.662 213.861 124.662C210.102 124.662 208.148 128.129 208.148 132.816C208.148 137.455 210.102 140.922 213.861 140.922ZM233.92 119.486L238.852 128.812L243.881 119.486H251.352L243.588 132.719L251.547 146H244.125L238.852 136.771L233.676 146H226.156L234.066 132.719L226.449 119.486H233.92ZM261.742 146.439C255.688 146.439 250.951 141.605 250.951 132.768C250.951 123.686 255.883 119.145 261.742 119.145C266.186 119.145 268.285 121.781 269.262 123.93H269.506V110.648H276.732V146H269.604V141.752H269.262C268.236 143.949 266.039 146.439 261.742 146.439ZM263.988 140.678C267.602 140.678 269.652 137.504 269.652 132.719C269.652 127.934 267.602 124.906 263.988 124.906C260.326 124.906 258.373 128.08 258.373 132.719C258.373 137.406 260.326 140.678 263.988 140.678Z" fill="white"/>
<rect x="204.658" width="69.1011" height="69.1011" rx="19.7432" transform="rotate(44.0784 204.658 0)" fill="#40BCF4"/>
<rect x="142.129" y="0.0210266" width="69.1011" height="69.1011" rx="19.7432" transform="rotate(46.9173 142.129 0.0210266)" fill="#00E054"/>
<path d="M175.839 36.0839C183.287 44.0477 182.868 56.5422 174.905 63.9901L173.115 65.663L170.768 63.3896C162.935 55.8044 162.733 43.3048 170.319 35.4716L172.835 32.873L175.839 36.0839Z" fill="white"/>
<rect x="73.2448" y="0.630951" width="69.1011" height="69.1011" rx="19.7432" transform="rotate(44.2809 73.2448 0.630951)" fill="#FF8000"/>
<path d="M108.568 35.1089C116.374 42.7214 116.531 55.2198 108.92 63.0261L107.637 64.3377L105.132 61.6579C97.6843 53.6942 98.102 41.1999 106.065 33.752L106.632 33.2219L108.568 35.1089Z" fill="white"/>
</svg>
